<?xml version="1.0" encoding="utf-8"?>
<!-- Generator: Adobe Illustrator 17.1.0, SVG Export Plug-In . SVG Version: 6.00 Build 0)  -->
<!DOCTYPE svg PUBLIC "-//W3C//DTD SVG 1.1//EN" "http://www.w3.org/Graphics/SVG/1.1/DTD/svg11.dtd">
<svg version="1.1" id="Слой_1" xmlns="http://www.w3.org/2000/svg" xmlns:xlink="http://www.w3.org/1999/xlink" x="0px" y="0px"
	 viewBox="0 0 30 30" enable-background="new 0 0 30 30" xml:space="preserve">
<g>
	<path style="fill: #ffffff" d="M25,14.5L4.4,0.3c-0.2-0.1-0.5-0.2-0.7,0C3.4,0.4,3.3,0.6,3.3,0.9v28.5c0,0.3,0.1,0.5,0.4,0.6c0.1,0.1,0.2,0.1,0.3,0.1
		c0.1,0,0.3,0,0.4-0.1L25,15.7c0.2-0.1,0.3-0.4,0.3-0.6C25.3,14.9,25.2,14.7,25,14.5L25,14.5z M4.7,28V2.3l18.7,12.9L4.7,28z
		 M4.7,28"/>
</g>
</svg>
