<?xml version="1.0" encoding="utf-8"?>
<!-- Generator: Adobe Illustrator 17.1.0, SVG Export Plug-In . SVG Version: 6.00 Build 0)  -->
<!DOCTYPE svg PUBLIC "-//W3C//DTD SVG 1.1//EN" "http://www.w3.org/Graphics/SVG/1.1/DTD/svg11.dtd">
<svg version="1.1" id="Слой_1" xmlns="http://www.w3.org/2000/svg" xmlns:xlink="http://www.w3.org/1999/xlink" x="0px" y="0px"
	 viewBox="0 0 184.3 67.5" enable-background="new 0 0 184.3 67.5" xml:space="preserve">
<path fill="#E31E24" d="M183,62.4c0-0.6-0.1-1.1-0.2-1.5c-0.1-0.4-0.3-0.8-0.5-1.1c-0.2-0.3-0.5-0.5-0.8-0.7
	c-0.3-0.2-0.7-0.2-1.1-0.2c-0.4,0-0.8,0.1-1.1,0.2c-0.3,0.2-0.6,0.4-0.8,0.7c-0.2,0.3-0.4,0.7-0.5,1.1c-0.1,0.4-0.2,1-0.2,1.5V63
	c0,0.6,0.1,1.1,0.2,1.5c0.1,0.4,0.3,0.8,0.5,1.1c0.2,0.3,0.5,0.5,0.8,0.7c0.3,0.2,0.7,0.2,1.1,0.2c0.4,0,0.8-0.1,1.1-0.2
	c0.3-0.2,0.6-0.4,0.8-0.7c0.2-0.3,0.4-0.7,0.5-1.1c0.1-0.4,0.2-1,0.2-1.5V62.4z M184.3,63c0,0.7-0.1,1.4-0.3,2
	c-0.2,0.6-0.4,1.1-0.8,1.5c-0.3,0.4-0.7,0.7-1.2,0.9c-0.5,0.2-1,0.3-1.6,0.3c-0.6,0-1.1-0.1-1.6-0.3c-0.5-0.2-0.9-0.5-1.2-0.9
	c-0.3-0.4-0.6-0.9-0.8-1.5c-0.2-0.6-0.3-1.2-0.3-2v-0.6c0-0.7,0.1-1.4,0.3-2c0.2-0.6,0.5-1.1,0.8-1.5c0.3-0.4,0.8-0.7,1.2-0.9
	c0.5-0.2,1-0.3,1.6-0.3c0.6,0,1.1,0.1,1.6,0.3c0.5,0.2,0.9,0.5,1.2,0.9c0.3,0.4,0.6,0.9,0.8,1.5c0.2,0.6,0.3,1.2,0.3,2V63z
	 M174.5,67.5h-1.3V63h-4.9v4.5H167v-9.7h1.3V62h4.9v-4.2h1.3V67.5z M164.8,67.5h-1.3V63h-4.9v4.5h-1.3v-9.7h1.3V62h4.9v-4.2h1.3
	V67.5z M155,63h-4.2v3.4h4.9v1h-6.2v-9.7h6.1v1.1h-4.8V62h4.2V63z M142.3,62h1.9c0.3,0,0.5,0,0.8-0.1c0.2-0.1,0.4-0.2,0.6-0.3
	c0.2-0.1,0.3-0.3,0.4-0.5c0.1-0.2,0.1-0.4,0.1-0.7c0-0.5-0.2-0.9-0.5-1.2c-0.3-0.2-0.8-0.4-1.4-0.4h-1.9V62z M142.3,63v3.5h2.1
	c0.3,0,0.6,0,0.8-0.1c0.2-0.1,0.4-0.2,0.6-0.3c0.2-0.1,0.3-0.3,0.4-0.5c0.1-0.2,0.1-0.5,0.1-0.7c0-0.3,0-0.5-0.1-0.7
	c-0.1-0.2-0.2-0.4-0.3-0.6c-0.2-0.2-0.3-0.3-0.6-0.4c-0.2-0.1-0.5-0.1-0.8-0.1H142.3z M141,67.5v-9.7h3.2c0.5,0,0.9,0.1,1.3,0.2
	c0.4,0.1,0.7,0.3,1,0.5c0.3,0.2,0.5,0.5,0.6,0.8c0.1,0.3,0.2,0.7,0.2,1.2c0,0.5-0.1,0.9-0.4,1.2c-0.3,0.3-0.6,0.6-1.1,0.8
	c0.3,0.1,0.5,0.2,0.7,0.3c0.2,0.1,0.4,0.3,0.5,0.5c0.1,0.2,0.3,0.4,0.3,0.7c0.1,0.2,0.1,0.5,0.1,0.8c0,0.5-0.1,0.9-0.2,1.2
	c-0.2,0.4-0.4,0.6-0.6,0.9c-0.3,0.2-0.6,0.4-1,0.5c-0.4,0.1-0.8,0.2-1.3,0.2H141z M139.6,58.9h-3.1v8.7h-1.3v-8.7H132v-1.1h7.5V58.9
	z M131.1,64.4c-0.1,0.5-0.2,0.9-0.3,1.3c-0.2,0.4-0.4,0.7-0.7,1c-0.3,0.3-0.7,0.5-1.1,0.7c-0.4,0.2-0.9,0.2-1.5,0.2
	c-0.6,0-1.1-0.1-1.6-0.3c-0.5-0.2-0.9-0.5-1.2-0.9c-0.3-0.4-0.6-0.9-0.8-1.4c-0.2-0.6-0.3-1.2-0.3-1.8v-1c0-0.7,0.1-1.3,0.3-1.9
	c0.2-0.6,0.4-1,0.8-1.4c0.3-0.4,0.7-0.7,1.2-0.9c0.5-0.2,1-0.3,1.6-0.3c0.5,0,1,0.1,1.5,0.2c0.4,0.2,0.8,0.4,1.1,0.7
	c0.3,0.3,0.5,0.6,0.7,1c0.2,0.4,0.3,0.8,0.3,1.3h-1.3c0-0.3-0.1-0.6-0.2-0.9c-0.1-0.3-0.2-0.5-0.4-0.7c-0.2-0.2-0.4-0.3-0.7-0.4
	c-0.3-0.1-0.6-0.2-1-0.2c-0.4,0-0.8,0.1-1.1,0.3c-0.3,0.2-0.6,0.4-0.8,0.7c-0.2,0.3-0.4,0.7-0.5,1.1c-0.1,0.4-0.2,0.9-0.2,1.4v1
	c0,0.5,0.1,0.9,0.2,1.3c0.1,0.4,0.3,0.8,0.5,1.1c0.2,0.3,0.5,0.6,0.8,0.7c0.3,0.2,0.7,0.3,1.1,0.3c0.4,0,0.8-0.1,1-0.1
	c0.3-0.1,0.5-0.2,0.7-0.4c0.2-0.2,0.3-0.4,0.4-0.7c0.1-0.3,0.2-0.6,0.2-0.9H131.1z M121.7,63h-4.2v3.4h4.9v1h-6.2v-9.7h6.1v1.1h-4.8
	V62h4.2V63z M113.9,57.8v9.7h-1.3v-4c-0.2,0.1-0.4,0.1-0.6,0.1c-0.2,0-0.4,0.1-0.6,0.1c-0.2,0-0.4,0.1-0.7,0.1c-0.2,0-0.5,0-0.8,0
	c-0.5,0-1-0.1-1.4-0.2c-0.4-0.1-0.8-0.3-1-0.5c-0.3-0.2-0.5-0.5-0.6-0.9c-0.2-0.4-0.2-0.8-0.2-1.4v-3h1.3v3c0,0.4,0,0.7,0.1,0.9
	c0.1,0.3,0.2,0.5,0.4,0.6c0.2,0.1,0.4,0.3,0.6,0.3c0.3,0.1,0.5,0.1,0.9,0.1c0.5,0,0.9,0,1.3-0.1c0.4-0.1,0.8-0.2,1.2-0.3v-4.6H113.9
	z M100.5,63.9h3.3l-1.7-4.5L100.5,63.9z M104.2,65h-4.1l-0.9,2.5h-1.3l3.7-9.7h1.1l3.7,9.7h-1.3L104.2,65z M92.2,63.2H91v4.4h-1.3
	v-9.7H91v4.3h1l3.4-4.3H97l-3.7,4.7l4,5h-1.6L92.2,63.2z M83.1,62.4c0-0.6-0.1-1.1-0.2-1.5c-0.1-0.4-0.3-0.8-0.5-1.1
	c-0.2-0.3-0.5-0.5-0.8-0.7c-0.3-0.2-0.7-0.2-1.1-0.2c-0.4,0-0.8,0.1-1.1,0.2c-0.3,0.2-0.6,0.4-0.8,0.7c-0.2,0.3-0.4,0.7-0.5,1.1
	c-0.1,0.4-0.2,1-0.2,1.5V63c0,0.6,0.1,1.1,0.2,1.5c0.1,0.4,0.3,0.8,0.5,1.1c0.2,0.3,0.5,0.5,0.8,0.7c0.3,0.2,0.7,0.2,1.1,0.2
	c0.4,0,0.8-0.1,1.1-0.2c0.3-0.2,0.6-0.4,0.8-0.7c0.2-0.3,0.4-0.7,0.5-1.1c0.1-0.4,0.2-1,0.2-1.5V62.4z M84.3,63c0,0.7-0.1,1.4-0.3,2
	c-0.2,0.6-0.4,1.1-0.8,1.5c-0.3,0.4-0.7,0.7-1.2,0.9c-0.5,0.2-1,0.3-1.6,0.3c-0.6,0-1.1-0.1-1.6-0.3c-0.5-0.2-0.9-0.5-1.2-0.9
	c-0.3-0.4-0.6-0.9-0.8-1.5c-0.2-0.6-0.3-1.2-0.3-2v-0.6c0-0.7,0.1-1.4,0.3-2c0.2-0.6,0.5-1.1,0.8-1.5c0.3-0.4,0.8-0.7,1.2-0.9
	c0.5-0.2,1-0.3,1.6-0.3c0.6,0,1.1,0.1,1.6,0.3c0.5,0.2,0.9,0.5,1.2,0.9c0.3,0.4,0.6,0.9,0.8,1.5c0.2,0.6,0.3,1.2,0.3,2V63z
	 M75.8,58.9h-3.1v8.7h-1.3v-8.7h-3.1v-1.1h7.5V58.9z M66.8,57.8v9.7h-1.3v-4c-0.2,0.1-0.4,0.1-0.6,0.1c-0.2,0-0.4,0.1-0.6,0.1
	c-0.2,0-0.4,0.1-0.7,0.1c-0.2,0-0.5,0-0.8,0c-0.5,0-1-0.1-1.4-0.2c-0.4-0.1-0.8-0.3-1-0.5c-0.3-0.2-0.5-0.5-0.6-0.9
	c-0.2-0.4-0.2-0.8-0.2-1.4v-3h1.3v3c0,0.4,0,0.7,0.1,0.9c0.1,0.3,0.2,0.5,0.4,0.6c0.2,0.1,0.4,0.3,0.6,0.3c0.3,0.1,0.5,0.1,0.9,0.1
	c0.5,0,0.9,0,1.3-0.1c0.4-0.1,0.8-0.2,1.2-0.3v-4.6H66.8z M50.7,63.5l2.2-5.6h1.5L51,65.9c-0.1,0.2-0.2,0.4-0.3,0.7
	c-0.1,0.2-0.3,0.4-0.4,0.6c-0.2,0.2-0.4,0.3-0.6,0.4c-0.3,0.1-0.6,0.1-0.9,0.1c-0.1,0-0.1,0-0.2,0c-0.1,0-0.1,0-0.2,0
	c-0.1,0-0.1,0-0.2,0c-0.1,0-0.1,0-0.1,0l0-1c0,0,0.1,0,0.1,0c0.1,0,0.1,0,0.2,0c0.1,0,0.1,0,0.2,0c0.1,0,0.1,0,0.1,0
	c0.2,0,0.3,0,0.5-0.1c0.1-0.1,0.2-0.1,0.3-0.2c0.1-0.1,0.2-0.2,0.2-0.3c0.1-0.1,0.1-0.2,0.2-0.4l0.3-0.6l-3.3-7.2h1.4L50.7,63.5z
	 M37.1,57.8l3.2,7.9l3.2-7.9h1.7v9.7h-1.3v-3.8l0.1-4.1l-3.2,7.9h-1l-3.2-7.9l0.1,4.1v3.8h-1.3v-9.7H37.1z M32.2,62.4
	c0-0.6-0.1-1.1-0.2-1.5c-0.1-0.4-0.3-0.8-0.5-1.1c-0.2-0.3-0.5-0.5-0.8-0.7c-0.3-0.2-0.7-0.2-1.1-0.2c-0.4,0-0.8,0.1-1.1,0.2
	c-0.3,0.2-0.6,0.4-0.8,0.7c-0.2,0.3-0.4,0.7-0.5,1.1c-0.1,0.4-0.2,1-0.2,1.5V63c0,0.6,0.1,1.1,0.2,1.5c0.1,0.4,0.3,0.8,0.5,1.1
	c0.2,0.3,0.5,0.5,0.8,0.7c0.3,0.2,0.7,0.2,1.1,0.2c0.4,0,0.8-0.1,1.1-0.2c0.3-0.2,0.6-0.4,0.8-0.7c0.2-0.3,0.4-0.7,0.5-1.1
	c0.1-0.4,0.2-1,0.2-1.5V62.4z M33.5,63c0,0.7-0.1,1.4-0.3,2c-0.2,0.6-0.4,1.1-0.8,1.5c-0.3,0.4-0.7,0.7-1.2,0.9
	c-0.5,0.2-1,0.3-1.6,0.3c-0.6,0-1.1-0.1-1.6-0.3c-0.5-0.2-0.9-0.5-1.2-0.9c-0.3-0.4-0.6-0.9-0.8-1.5c-0.2-0.6-0.3-1.2-0.3-2v-0.6
	c0-0.7,0.1-1.4,0.3-2c0.2-0.6,0.5-1.1,0.8-1.5c0.3-0.4,0.8-0.7,1.2-0.9c0.5-0.2,1-0.3,1.6-0.3c0.6,0,1.1,0.1,1.6,0.3
	c0.5,0.2,0.9,0.5,1.2,0.9c0.3,0.4,0.6,0.9,0.8,1.5c0.2,0.6,0.3,1.2,0.3,2V63z M25.4,58.9h-3.1v8.7H21v-8.7h-3.1v-1.1h7.5V58.9z
	 M15.9,62.4c0-0.6-0.1-1.1-0.2-1.5c-0.1-0.4-0.3-0.8-0.5-1.1c-0.2-0.3-0.5-0.5-0.8-0.7c-0.3-0.2-0.7-0.2-1.1-0.2
	c-0.4,0-0.8,0.1-1.1,0.2c-0.3,0.2-0.6,0.4-0.8,0.7c-0.2,0.3-0.4,0.7-0.5,1.1c-0.1,0.4-0.2,1-0.2,1.5V63c0,0.6,0.1,1.1,0.2,1.5
	c0.1,0.4,0.3,0.8,0.5,1.1c0.2,0.3,0.5,0.5,0.8,0.7c0.3,0.2,0.7,0.2,1.1,0.2c0.4,0,0.8-0.1,1.1-0.2c0.3-0.2,0.6-0.4,0.8-0.7
	c0.2-0.3,0.4-0.7,0.5-1.1c0.1-0.4,0.2-1,0.2-1.5V62.4z M17.2,63c0,0.7-0.1,1.4-0.3,2c-0.2,0.6-0.4,1.1-0.8,1.5
	c-0.3,0.4-0.7,0.7-1.2,0.9c-0.5,0.2-1,0.3-1.6,0.3c-0.6,0-1.1-0.1-1.6-0.3c-0.5-0.2-0.9-0.5-1.2-0.9c-0.3-0.4-0.6-0.9-0.8-1.5
	c-0.2-0.6-0.3-1.2-0.3-2v-0.6c0-0.7,0.1-1.4,0.3-2c0.2-0.6,0.5-1.1,0.8-1.5c0.3-0.4,0.8-0.7,1.2-0.9c0.5-0.2,1-0.3,1.6-0.3
	c0.6,0,1.1,0.1,1.6,0.3c0.5,0.2,0.9,0.5,1.2,0.9c0.3,0.4,0.6,0.9,0.8,1.5c0.2,0.6,0.3,1.2,0.3,2V63z M7.4,67.5H6.1v-8.7H1.3v8.7H0
	v-9.7h7.4V67.5z"/>
<path fill-rule="evenodd" clip-rule="evenodd" fill="#898989" d="M166.4,18.5v2.6c0.3-0.8,0.9-1.4,1.7-1.9c0.8-0.5,1.8-0.7,3-0.7
	h6.2c2.5,0,4.3,0.7,5.5,2c1,1.1,1.5,2.7,1.5,4.7v9.3h-2.3v-9.7c0-1.4-0.4-2.5-1.3-3.2c-0.8-0.8-2-1.2-3.4-1.2h-6.2
	c-1.4,0-2.5,0.4-3.4,1.2c-0.9,0.8-1.3,1.9-1.3,3.2v9.7h-2.3v-16H166.4z M142.7,28.3c0,2.9,1.6,4.3,4.8,4.3h6.1c1.5,0,2.7-0.3,3.6-1
	c0.9-0.7,1.3-1.8,1.3-3.3v-3.5c0-1.4-0.4-2.5-1.2-3.2c-0.8-0.7-2-1.1-3.6-1.1h-6.1c-1.6,0-2.8,0.3-3.6,1c-0.8,0.7-1.2,1.8-1.2,3.3
	V28.3z M140.4,24.7c0-1.9,0.5-3.4,1.6-4.5c1.2-1.2,3-1.8,5.4-1.8h6.4c2.5,0,4.3,0.6,5.5,1.9c1,1.1,1.5,2.6,1.5,4.4v3.5
	c0,1.9-0.5,3.3-1.6,4.4c-1.2,1.3-3,1.9-5.5,1.9h-6.4c-4.7,0-7-2.1-7-6.3V24.7z M134.1,12h2.3v2.3h-2.3V12z M136.4,18.5v16h-2.3v-16
	H136.4z M115,15.3h2.3v3.1h12.1v1.9h-12.1v8.4c0,1.3,0.3,2.2,0.9,2.8c0.6,0.6,1.5,0.9,2.5,0.9h3.1c1.9,0,3.3-0.5,4-1.5
	c0.5-0.6,0.7-1.7,0.7-3.1h2.3c0,1.7-0.4,3.1-1.1,4.1c-1.1,1.6-3,2.4-5.7,2.4h-3.3c-1.8,0-3.2-0.5-4.2-1.5c-1-1-1.6-2.6-1.6-4.6v-8.1
	h-2v-1.9h2V15.3z M108.8,28.9h2.3c0,1.3-0.3,2.4-1,3.3c-1.1,1.6-3,2.3-5.8,2.3h-7.2c-2.2,0-3.8-0.5-4.9-1.5c-1.1-1-1.6-2.5-1.6-4.4
	v-4c0-1.8,0.5-3.3,1.6-4.4c1.2-1.2,2.9-1.8,5.1-1.8h7c2.7,0,4.6,0.8,5.7,2.3c0.7,1,1,2.1,1,3.3h-2.3c0-1.2-0.4-2.1-1.2-2.7
	c-0.8-0.6-1.9-1-3.2-1h-7c-1.4,0-2.5,0.4-3.2,1.1c-0.8,0.7-1.1,1.8-1.1,3.1v4c0,1.3,0.4,2.2,1.2,2.9c0.8,0.7,1.8,1,3,1h7.1
	c1.8,0,3-0.5,3.7-1.4C108.6,30.6,108.8,29.8,108.8,28.9z M87.8,26.7H69.7v1.6c0,1.6,0.4,2.7,1.3,3.4c0.7,0.6,1.8,0.9,3.2,0.9h7.6
	c1.2,0,2.2-0.3,2.8-0.9c0.6-0.6,0.9-1.4,0.9-2.3h2.3c0,1.4-0.4,2.6-1.2,3.4c-1,1.1-2.5,1.7-4.5,1.7h-7.9c-4.6,0-6.9-2-6.9-6v-4.2
	c0-1.6,0.6-2.9,1.8-4.1c1.3-1.2,3-1.8,5.1-1.8h6.7c2.2,0,3.9,0.6,5.2,1.7c1.1,1,1.7,2.4,1.7,4V26.7z M85.4,24.7
	c0-1.3-0.4-2.4-1.1-3.2c-0.8-0.8-1.8-1.2-3.2-1.2h-7.3c-1.2,0-2.2,0.4-3,1.2c-0.8,0.8-1.1,1.8-1.1,3.2H85.4z M25.6,28.3
	c0,2.9,1.6,4.3,4.8,4.3h6.1c1.5,0,2.7-0.3,3.6-1c0.9-0.7,1.3-1.8,1.3-3.3v-3.5c0-1.4-0.4-2.5-1.2-3.2c-0.8-0.7-2-1.1-3.6-1.1h-6.1
	c-1.6,0-2.8,0.3-3.6,1c-0.8,0.7-1.2,1.8-1.2,3.3V28.3z M23.3,24.7c0-1.9,0.5-3.4,1.6-4.5c1.2-1.2,3-1.8,5.4-1.8h6.4
	c2.5,0,4.3,0.6,5.5,1.9c1,1.1,1.5,2.6,1.5,4.4v3.5c0,1.9-0.5,3.3-1.6,4.4c-1.2,1.3-3,1.9-5.5,1.9h-6.4c-4.7,0-7-2.1-7-6.3V24.7z
	 M18.1,28.9h2.3c0,1.3-0.3,2.4-1,3.3c-1.1,1.6-3,2.3-5.8,2.3H6.5c-2.2,0-3.8-0.5-4.9-1.5C0.5,32,0,30.5,0,28.6v-4
	c0-1.8,0.5-3.3,1.6-4.4c1.2-1.2,2.9-1.8,5.1-1.8h7c2.7,0,4.6,0.8,5.7,2.3c0.7,1,1,2.1,1,3.3h-2.3c0-1.2-0.4-2.1-1.2-2.7
	c-0.8-0.6-1.9-1-3.2-1h-7c-1.4,0-2.5,0.4-3.2,1.1c-0.8,0.7-1.1,1.8-1.1,3.1v4c0,1.3,0.4,2.2,1.2,2.9c0.8,0.7,1.8,1,3,1h7.1
	c1.8,0,3-0.5,3.7-1.4C17.9,30.6,18.1,29.8,18.1,28.9z"/>
<path fill-rule="evenodd" clip-rule="evenodd" fill="#2B2A29" d="M171.9,36.9h1.1V38h-1.1V36.9z M76.6,47.3h-1.1v-0.7
	c-0.2,0.2-0.4,0.3-0.6,0.4c-0.5,0.2-1,0.4-1.6,0.4h-2.9c-1.1,0-1.8-0.2-2.4-0.7c-0.5-0.5-0.8-1.2-0.8-2.2v-1.6
	c0-0.9,0.3-1.6,0.8-2.1c0.5-0.5,1.3-0.8,2.4-0.8h2.9c0.6,0,1.2,0.1,1.6,0.4c0.3,0.1,0.4,0.3,0.5,0.4v-3.8h1.1V47.3z M75.5,44.4v-1.6
	c0-0.6-0.2-1.1-0.6-1.4c-0.4-0.4-1-0.6-1.7-0.6h-2.4c-0.8,0-1.5,0.2-1.8,0.5c-0.4,0.3-0.6,0.8-0.6,1.5v1.6c0,0.7,0.2,1.2,0.6,1.5
	c0.4,0.3,1,0.5,1.8,0.5h2.4c0.8,0,1.3-0.2,1.7-0.6C75.3,45.5,75.5,45,75.5,44.4z M86.6,42.8c0-0.6-0.2-1.1-0.5-1.5
	c-0.3-0.4-0.8-0.5-1.5-0.5h-3.4c-0.6,0-1,0.2-1.4,0.5c-0.3,0.4-0.5,0.8-0.5,1.5H86.6z M87.6,43.7h-8.3v0.7c0,0.7,0.2,1.2,0.6,1.6
	c0.3,0.3,0.8,0.4,1.5,0.4h3.5c0.6,0,1-0.1,1.3-0.4c0.3-0.3,0.4-0.6,0.4-1.1h1.1c0,0.6-0.2,1.2-0.5,1.6C86.7,47,86,47.3,85,47.3h-3.6
	c-2.1,0-3.2-0.9-3.2-2.7v-1.9c0-0.7,0.3-1.3,0.8-1.9c0.6-0.6,1.4-0.9,2.3-0.9h3.1c1,0,1.8,0.3,2.4,0.8c0.5,0.5,0.8,1.1,0.8,1.8V43.7
	z M89.1,44.9h1.1v0.4c0,0.4,0.1,0.6,0.3,0.7c0.2,0.2,0.7,0.3,1.4,0.3h3.8c1.1,0,1.7-0.3,1.7-1V45c0-0.7-0.5-1-1.4-1h-4.3
	c-0.8,0-1.5-0.1-1.9-0.4c-0.4-0.3-0.6-0.8-0.6-1.5v-0.3c0-0.5,0.2-1,0.6-1.3c0.5-0.4,1.1-0.6,2-0.6h3.5c1.2,0,2.1,0.2,2.6,0.6
	c0.4,0.3,0.6,0.7,0.6,1.2v0.5h-1.1v-0.5c0-0.2-0.1-0.4-0.3-0.6c-0.4-0.3-1-0.4-1.8-0.4h-3.7c-0.9,0-1.4,0.3-1.4,1v0.3
	c0,0.7,0.5,1,1.4,1h4.3c0.8,0,1.5,0.2,1.9,0.5c0.4,0.3,0.7,0.8,0.7,1.5v0.3c0,0.5-0.2,1-0.7,1.3c-0.5,0.4-1.2,0.6-2,0.6h-4.1
	c-1,0-1.6-0.2-2-0.6c-0.3-0.3-0.5-0.7-0.5-1.3V44.9z M101.5,39.9v7.4h-1.1v-7.4H101.5z M111.7,39.9h1.1v8.2c0,0.7-0.2,1.3-0.7,1.7
	c-0.5,0.5-1.3,0.7-2.4,0.7h-3c-0.9,0-1.5-0.2-2.1-0.5c-0.5-0.4-0.8-0.8-0.8-1.4h1.2c0,0.3,0.2,0.5,0.5,0.8c0.3,0.2,0.7,0.3,1.3,0.3
	h2.8c0.7,0,1.2-0.1,1.6-0.4c0.4-0.3,0.6-0.6,0.6-1v-1.7c-0.1,0.2-0.3,0.4-0.6,0.5c-0.4,0.2-0.9,0.3-1.5,0.3h-3.1
	c-2.1,0-3.1-0.9-3.1-2.7v-1.9c0-0.9,0.2-1.6,0.7-2.1c0.5-0.5,1.3-0.7,2.3-0.7h3.1c0.5,0,0.9,0.1,1.3,0.2c0.4,0.1,0.6,0.3,0.8,0.6
	V39.9z M111.7,44.4v-1.6c0-0.6-0.2-1.1-0.5-1.4c-0.4-0.4-1-0.6-1.7-0.6H107c-0.9,0-1.5,0.2-1.9,0.5c-0.4,0.3-0.6,0.8-0.6,1.5v1.6
	c0,0.7,0.2,1.2,0.6,1.5c0.4,0.3,1,0.5,1.9,0.5h2.4c0.7,0,1.3-0.2,1.7-0.6C111.5,45.5,111.7,45,111.7,44.4z M115.6,39.9v1.2
	c0.1-0.4,0.4-0.6,0.8-0.9c0.4-0.2,0.8-0.3,1.4-0.3h2.8c1.1,0,2,0.3,2.5,0.9c0.5,0.5,0.7,1.2,0.7,2.2v4.3h-1.1v-4.4
	c0-0.6-0.2-1.1-0.6-1.5c-0.4-0.4-0.9-0.5-1.6-0.5h-2.8c-0.6,0-1.2,0.2-1.6,0.5c-0.4,0.4-0.6,0.9-0.6,1.5v4.4h-1.1v-7.4H115.6z
	 M130.2,44.9h1.1v0.4c0,0.4,0.1,0.6,0.3,0.7c0.2,0.2,0.7,0.3,1.4,0.3h3.8c1.1,0,1.7-0.3,1.7-1V45c0-0.7-0.5-1-1.4-1h-4.3
	c-0.8,0-1.5-0.1-1.9-0.4c-0.4-0.3-0.6-0.8-0.6-1.5v-0.3c0-0.5,0.2-1,0.6-1.3c0.5-0.4,1.1-0.6,2-0.6h3.5c1.2,0,2.1,0.2,2.6,0.6
	c0.4,0.3,0.6,0.7,0.6,1.2v0.5h-1.1v-0.5c0-0.2-0.1-0.4-0.3-0.6c-0.4-0.3-1-0.4-1.8-0.4h-3.7c-0.9,0-1.4,0.3-1.4,1v0.3
	c0,0.7,0.5,1,1.4,1h4.3c0.8,0,1.5,0.2,1.9,0.5c0.4,0.3,0.7,0.8,0.7,1.5v0.3c0,0.5-0.2,1-0.7,1.3c-0.5,0.4-1.2,0.6-2,0.6h-4.1
	c-1,0-1.6-0.2-2-0.6c-0.3-0.3-0.5-0.7-0.5-1.3V44.9z M141.4,38.4h1.1v1.4h5.6v0.9h-5.6v3.9c0,0.6,0.1,1,0.4,1.3
	c0.3,0.3,0.7,0.4,1.1,0.4h1.4c0.9,0,1.5-0.2,1.8-0.7c0.2-0.3,0.3-0.8,0.3-1.4h1.1c0,0.8-0.2,1.4-0.5,1.9c-0.5,0.7-1.4,1.1-2.6,1.1
	h-1.5c-0.8,0-1.5-0.2-1.9-0.7c-0.5-0.5-0.7-1.2-0.7-2.1v-3.7h-0.9v-0.9h0.9V38.4z M149.8,39.9h1.1v4.6c0,0.6,0.2,1.1,0.6,1.4
	c0.4,0.3,0.9,0.5,1.6,0.5h2.9c0.6,0,1.1-0.1,1.5-0.4c0.4-0.3,0.7-0.8,0.7-1.4v-4.7h1.1v7.4h-1.1v-0.9c-0.3,0.3-0.6,0.6-0.9,0.7
	c-0.3,0.1-0.7,0.2-1.2,0.2h-2.9c-1.1,0-1.9-0.2-2.4-0.7c-0.5-0.5-0.8-1.2-0.8-2.2V39.9z M169.9,47.3h-1.1v-0.7
	c-0.2,0.2-0.4,0.3-0.6,0.4c-0.5,0.2-1,0.4-1.6,0.4h-2.9c-1.1,0-1.8-0.2-2.4-0.7c-0.5-0.5-0.8-1.2-0.8-2.2v-1.6
	c0-0.9,0.3-1.6,0.8-2.1c0.5-0.5,1.3-0.8,2.4-0.8h2.9c0.6,0,1.2,0.1,1.6,0.4c0.3,0.1,0.4,0.3,0.5,0.4v-3.8h1.1V47.3z M168.8,44.4
	v-1.6c0-0.6-0.2-1.1-0.6-1.4c-0.4-0.4-1-0.6-1.7-0.6h-2.4c-0.8,0-1.5,0.2-1.8,0.5c-0.4,0.3-0.6,0.8-0.6,1.5v1.6
	c0,0.7,0.2,1.2,0.6,1.5c0.4,0.3,1,0.5,1.8,0.5h2.4c0.8,0,1.3-0.2,1.7-0.6C168.6,45.5,168.8,45,168.8,44.4z M173,39.9v7.4h-1.1v-7.4
	H173z M174.8,42.8c0-0.9,0.2-1.6,0.7-2.1c0.5-0.6,1.4-0.8,2.5-0.8h3c1.1,0,2,0.3,2.5,0.9c0.5,0.5,0.7,1.2,0.7,2v1.6
	c0,0.9-0.2,1.5-0.7,2c-0.6,0.6-1.4,0.9-2.5,0.9h-2.9c-2.1,0-3.2-1-3.2-2.9V42.8z M175.9,44.4c0,1.3,0.7,2,2.2,2h2.8
	c0.7,0,1.3-0.2,1.7-0.5c0.4-0.3,0.6-0.8,0.6-1.5v-1.6c0-0.6-0.2-1.1-0.6-1.5c-0.4-0.3-0.9-0.5-1.6-0.5h-2.8c-0.7,0-1.3,0.2-1.7,0.5
	c-0.4,0.3-0.6,0.8-0.6,1.5V44.4z"/>
<path fill-rule="evenodd" clip-rule="evenodd" fill="#E31E24" d="M50.3,52c-5.2-5.4-7-13.2-5.4-23.4c0.5-3.4,1.6-7.4,3.2-12.1
	c1.6-4.7,3.7-10.1,6.4-16.5c2.2,4.2,2.8,9.2,1.9,15.1c-0.5,3-1.5,7.2-3.2,12.6c-1.6,4.7-2.7,8.7-3.2,12.1
	C49.3,44.4,49.4,48.4,50.3,52 M61.8,52c-5.2-5.4-7-13.2-5.4-23.4c0.5-3.4,1.6-7.4,3.2-12.1C61.2,11.8,63.3,6.3,66,0
	c2.2,4.2,2.8,9.2,1.9,15.1c-0.5,3-1.5,7.2-3.2,12.6c-1.6,4.7-2.7,8.7-3.2,12.1C60.8,44.4,60.9,48.4,61.8,52z M100.4,36.9h1.1V38
	h-1.1V36.9z"/>
</svg>
